<?xml version="1.0" encoding="utf-8"?>
<!-- Generator: Adobe Illustrator 22.1.0, SVG Export Plug-In . SVG Version: 6.00 Build 0)  -->
<svg version="1.1" id="Layer_1" xmlns="http://www.w3.org/2000/svg" xmlns:xlink="http://www.w3.org/1999/xlink" x="0px" y="0px"
	 viewBox="0 0 316.6 75.2" style="enable-background:new 0 0 316.6 75.2;" xml:space="preserve">
<style type="text/css">
	.st0{fill:#6DF5D5;}
	.st1{fill:#0000FF;}
</style>
<g>
	<g>
		<path class="st0" d="M105.5,40.3V29.6h27.2v10.6H105.5z M111.2,67.6V26.3c0-4.2,1.1-7.6,3.4-10s5.8-3.7,10.5-3.7
			c1.9,0,3.9,0.3,5.9,1c2,0.6,3.6,1.4,4.9,2.2l-5.1,9.5c-0.5-0.4-1-0.7-1.5-0.8c-0.5-0.2-1.1-0.2-1.6-0.2c-1,0-1.7,0.4-2.2,1.1
			c-0.5,0.7-0.7,2-0.7,3.8v38.5H111.2z"/>
		<path class="st0" d="M159.3,68.5c-4.1,0-7.6-0.8-10.8-2.5s-5.6-4-7.3-7c-1.8-3-2.7-6.4-2.7-10.3c0-3.9,0.9-7.3,2.6-10.3
			c1.7-3,4.2-5.3,7.3-7c3.1-1.7,6.7-2.5,10.7-2.5c4.1,0,7.6,0.8,10.8,2.5c3.1,1.7,5.6,4,7.3,7c1.7,3,2.6,6.4,2.6,10.3
			c0,3.9-0.9,7.3-2.6,10.3c-1.7,3-4.2,5.3-7.3,7C166.9,67.7,163.4,68.5,159.3,68.5z M159.3,55.9c1.3,0,2.4-0.3,3.3-1
			c1-0.6,1.7-1.5,2.3-2.6s0.8-2.3,0.8-3.8c0-1.4-0.3-2.7-0.8-3.8c-0.6-1.1-1.3-2-2.3-2.6s-2.1-1-3.5-1c-1.3,0-2.4,0.3-3.4,1
			s-1.8,1.5-2.3,2.6c-0.6,1.1-0.8,2.3-0.8,3.8c0,1.4,0.3,2.7,0.8,3.8c0.6,1.1,1.3,2,2.4,2.6C156.9,55.6,158,55.9,159.3,55.9z"/>
		<path class="st1" d="M183.7,41V29.6h27.2V41H183.7z M203.3,68.5c-4.7,0-8.2-1.1-10.5-3.3c-2.3-2.2-3.4-5.4-3.4-9.6V17.8h13.7v34.1
			c0,1.4,0.2,2.4,0.6,3c0.4,0.6,1.1,0.9,2.1,0.9c0.4,0,0.9-0.1,1.5-0.4c0.6-0.3,1.1-0.5,1.4-0.8l4.6,9.9c-1.2,1-2.7,1.9-4.6,2.7
			C206.9,68.1,205.1,68.5,203.3,68.5z"/>
		<path class="st1" d="M227.8,26c-2,0-3.8-0.8-5.3-2.3s-2.3-3.3-2.3-5.3c0-2.1,0.8-3.9,2.3-5.4s3.3-2.2,5.3-2.2
			c2.1,0,3.9,0.7,5.4,2.2s2.2,3.3,2.2,5.4c0,2-0.7,3.8-2.2,5.3S229.9,26,227.8,26z M220.9,67.6v-38h13.7v38H220.9z"/>
		<path class="st1" d="M241.1,41V29.6h27.2V41H241.1z M260.7,68.5c-4.7,0-8.2-1.1-10.5-3.3c-2.3-2.2-3.4-5.4-3.4-9.6V17.8h13.7v34.1
			c0,1.4,0.2,2.4,0.6,3c0.4,0.6,1.1,0.9,2.1,0.9c0.4,0,0.9-0.1,1.5-0.4c0.6-0.3,1.1-0.5,1.4-0.8l4.6,9.9c-1.2,1-2.7,1.9-4.6,2.7
			C264.3,68.1,262.5,68.5,260.7,68.5z"/>
		<path class="st1" d="M295.3,68.5c-4.1,0-7.6-0.8-10.8-2.5s-5.6-4-7.3-7c-1.8-3-2.7-6.4-2.7-10.3c0-3.9,0.9-7.3,2.6-10.3
			c1.7-3,4.2-5.3,7.3-7c3.1-1.7,6.7-2.5,10.7-2.5c4.1,0,7.6,0.8,10.8,2.5c3.1,1.7,5.6,4,7.3,7c1.7,3,2.6,6.4,2.6,10.3
			c0,3.9-0.9,7.3-2.6,10.3c-1.7,3-4.2,5.3-7.3,7C302.8,67.7,299.3,68.5,295.3,68.5z M295.3,55.9c1.3,0,2.4-0.3,3.3-1
			c1-0.6,1.7-1.5,2.3-2.6s0.8-2.3,0.8-3.8c0-1.4-0.3-2.7-0.8-3.8c-0.6-1.1-1.3-2-2.3-2.6s-2.1-1-3.5-1c-1.3,0-2.4,0.3-3.4,1
			s-1.8,1.5-2.3,2.6c-0.6,1.1-0.8,2.3-0.8,3.8c0,1.4,0.3,2.7,0.8,3.8c0.6,1.1,1.3,2,2.4,2.6C292.8,55.6,294,55.9,295.3,55.9z"/>
	</g>
</g>
<g>
	<path class="st1" d="M61,9.4h9.5c4.4,0,7.9,3.5,7.9,7.9v31.6c0,4.4-3.5,7.9-7.9,7.9H61c-4.7,3.1-10.1,4.7-15.7,4.7
		c-5.6,0-11.1-1.6-15.7-4.7h-19c-4.4,0-7.9-3.5-7.9-7.9V17.3c0-4.4,3.5-7.9,7.9-7.9h1.6c0-2.6,2.1-4.7,4.7-4.7h4.7
		c2.6,0,4.7,2.1,4.7,4.7h3.2c4.7-3.1,10.1-4.7,15.7-4.7C51.1,4.7,56.5,6.5,61,9.4z M12.1,16.5c0-1.3-1.1-2.4-2.4-2.4
		s-2.4,1.1-2.4,2.4s1.1,2.4,2.4,2.4S12.1,17.9,12.1,16.5z M68.9,33.1C68.9,20,58.3,9.4,45.3,9.4S21.6,20,21.6,33.1
		s10.6,23.7,23.7,23.7S68.9,46.2,68.9,33.1z"/>
	<g>
		<path class="st0" d="M25.9,33.4c0-7.9,11.2-14.3,19.1-14.3v-4.8C34.5,14.4,25.9,22.9,25.9,33.4z"/>
		<path class="st0" d="M68.2,49.9c9.3-12.7,6.5-30.4-6.1-39.7s-30.4-6.5-39.7,6.1S15.9,46.7,28.5,56c10,7.3,23.6,7.3,33.6,0h0
			c0.1,0.2,0.3,0.3,0.4,0.5l16.8,16.8c1.7,1.7,4.5,1.7,6.2,0s1.7-4.5,0-6.2L68.8,50.3C68.6,50.2,68.4,50,68.2,49.9L68.2,49.9z
			 M68.4,33.1c0,13.3-9.8,23.1-23.1,23.1s-23.1-9.8-23.1-23.1S32,10,45.3,10S68.4,19.8,68.4,33.1z"/>
	</g>
</g>
</svg>
